<svg width="48" height="48" viewBox="0 0 48 48" fill="none" xmlns="http://www.w3.org/2000/svg">
<circle cx="24" cy="24" r="24" fill="white"/>
<path d="M20.84 33.4789C20 33.4789 19.22 33.2789 18.52 32.8789C16.92 31.9589 16 30.0789 16 27.6989V21.7789C16 19.4189 16.92 17.5189 18.52 16.5989C20.12 15.6789 22.2 15.8189 24.26 17.0189L29.4 19.9789C31.44 21.1589 32.62 22.8989 32.62 24.7389C32.62 26.5789 31.44 28.3189 29.4 29.4989L24.26 32.4589C23.1 33.1389 21.92 33.4789 20.84 33.4789ZM20.86 18.9989C20.54 18.9989 20.26 19.0589 20.04 19.1989C19.4 19.5789 19.02 20.5189 19.02 21.7789V27.6989C19.02 28.9589 19.38 29.8989 20.04 30.2789C20.68 30.6589 21.68 30.4989 22.78 29.8589L27.92 26.8989C29.02 26.2589 29.64 25.4789 29.64 24.7389C29.64 23.9989 29.02 23.1989 27.92 22.5789L22.78 19.6189C22.06 19.1989 21.4 18.9989 20.86 18.9989Z" fill="#8BCF9A"/>
<path d="M20.86 18.9989C20.54 18.9989 20.26 19.0589 20.04 19.1989C19.4 19.5789 19.02 20.5189 19.02 21.7789V27.6989C19.02 28.9589 19.38 29.8989 20.04 30.2789C20.68 30.6589 21.68 30.4989 22.78 29.8589L27.92 26.8989C29.02 26.2589 29.64 25.4789 29.64 24.7389C29.64 23.9989 29.02 23.1989 27.92 22.5789L22.78 19.6189C22.06 19.1989 21.4 18.9989 20.86 18.9989Z" fill="#8BCF9A"/>
</svg>
