<svg width="34" height="34" viewBox="0 0 34 34" fill="none" xmlns="http://www.w3.org/2000/svg">
<path d="M22.3222 21.0041C22.1625 21.107 21.9648 21.151 21.7575 21.1061C21.3567 21.0194 21.0967 20.6159 21.1835 20.215L22.8407 12.5576L15.1833 10.9003C14.7824 10.8136 14.5225 10.41 14.6092 10.0092C14.696 9.60836 15.0995 9.34843 15.5003 9.43518L23.8904 11.251C24.2912 11.3377 24.5512 11.7412 24.4644 12.1421L22.6486 20.5321C22.6038 20.7394 22.4819 20.9012 22.3222 21.0041Z" fill="#9F9C96"/>
<path d="M23.9957 12.7062L9.84711 21.8202C9.50243 22.0423 9.03248 21.9406 8.81045 21.5959C8.58842 21.2512 8.69013 20.7813 9.0348 20.5592L23.1834 11.4452C23.5281 11.2231 23.998 11.3248 24.2201 11.6695C24.4421 12.0142 24.3404 12.4842 23.9957 12.7062Z" fill="#9F9C96"/>
</svg>
