<svg width="24" height="24" viewBox="0 0 24 24" fill="none" xmlns="http://www.w3.org/2000/svg">
<path fill-rule="evenodd" clip-rule="evenodd" d="M16.295 9.60598L11.727 15.606C11.539 15.853 11.248 15.999 10.938 16.001H10.931C10.624 16.001 10.334 15.859 10.144 15.617L7.712 12.51C7.372 12.076 7.448 11.447 7.883 11.107C8.317 10.766 8.947 10.842 9.287 11.278L10.92 13.364L14.704 8.39498C15.038 7.95598 15.665 7.86998 16.106 8.20498C16.545 8.53998 16.63 9.16698 16.295 9.60598ZM12 2.00098C6.477 2.00098 2 6.47798 2 12.001C2 17.523 6.477 22.001 12 22.001C17.523 22.001 22 17.523 22 12.001C22 6.47798 17.523 2.00098 12 2.00098Z" fill="#231F20"/>
<mask id="mask0_579_12159" style="mask-type:luminance" maskUnits="userSpaceOnUse" x="2" y="2" width="20" height="21">
<path fill-rule="evenodd" clip-rule="evenodd" d="M16.295 9.60598L11.727 15.606C11.539 15.853 11.248 15.999 10.938 16.001H10.931C10.624 16.001 10.334 15.859 10.144 15.617L7.712 12.51C7.372 12.076 7.448 11.447 7.883 11.107C8.317 10.766 8.947 10.842 9.287 11.278L10.92 13.364L14.704 8.39498C15.038 7.95598 15.665 7.86998 16.106 8.20498C16.545 8.53998 16.63 9.16698 16.295 9.60598ZM12 2.00098C6.477 2.00098 2 6.47798 2 12.001C2 17.523 6.477 22.001 12 22.001C17.523 22.001 22 17.523 22 12.001C22 6.47798 17.523 2.00098 12 2.00098Z" fill="white"/>
</mask>
<g mask="url(#mask0_579_12159)">
<rect width="24" height="24" fill="#8BCF9A"/>
</g>
</svg>
