<svg width="48" height="48" viewBox="0 0 48 48" fill="none" xmlns="http://www.w3.org/2000/svg">
<path d="M41.7656 4.00336C40.6312 4.41586 39.9469 5.02524 39.4312 6.09399C39.1594 6.65649 39.1406 6.77836 39.1406 7.68774C39.1406 8.55961 39.1687 8.73774 39.3844 9.20649L39.6375 9.73149L36.5344 12.1596C34.8281 13.4909 33.4125 14.5877 33.375 14.6065C33.3375 14.6159 33.15 14.4752 32.9437 14.2971C32.7469 14.1096 32.3062 13.8284 31.9781 13.6596C31.4531 13.4065 31.2562 13.3596 30.4781 13.3315C29.7281 13.3034 29.4844 13.3315 29.0437 13.5002C28.3312 13.7627 27.675 14.2221 27.3281 14.7002C27.1781 14.9065 27.0281 15.0846 27 15.0846C26.8594 15.1034 21.3281 11.794 21.3281 11.6909C21.3281 11.6346 21.3937 11.269 21.4594 10.8846C21.7969 9.16899 20.9062 7.39711 19.35 6.68461C16.9687 5.59711 14.3344 6.96586 13.8562 9.54399C13.725 10.2377 13.8562 11.2221 14.1469 11.794L14.325 12.1409L11.0906 14.5596L7.86561 16.9784L7.53749 16.6877C5.81249 15.1784 3.04686 15.5909 1.78124 17.5502C0.262488 19.8846 1.62186 22.9409 4.40624 23.4565C5.90624 23.7377 7.60311 22.9315 8.41874 21.5534C8.68124 21.1127 8.90624 20.2315 8.90624 19.6409C8.90624 19.1159 8.68124 18.1502 8.49374 17.869C8.38124 17.7002 8.60624 17.5034 11.6062 15.2627L14.8406 12.8534L15.1594 13.1252C16.6031 14.4002 18.9 14.3252 20.3437 12.9752C20.5875 12.7502 20.8125 12.5627 20.8406 12.5627C20.8875 12.5627 26.3719 15.7315 26.5969 15.8815C26.6062 15.8909 26.5687 16.1815 26.5031 16.5284C26.2219 18.2159 27.1031 19.9127 28.6594 20.6534C29.2594 20.9346 29.3625 20.9534 30.3281 20.9534C31.3125 20.9534 31.3969 20.9346 31.9969 20.644C33.1219 20.0909 33.9094 19.0596 34.1344 17.8596C34.2562 17.2034 34.1906 16.3877 33.975 15.844C33.825 15.469 33.825 15.4502 33.9937 15.2815C34.0875 15.1784 35.5219 14.0534 37.1719 12.7596L40.1625 10.4252L40.5094 10.6971C40.7062 10.8471 41.1094 11.0909 41.4094 11.2315C41.8969 11.4565 42.0562 11.4846 42.9844 11.4846C43.9594 11.4846 44.0531 11.4659 44.6344 11.1846C46.1719 10.4252 47.0719 8.70024 46.7906 7.06898C46.5656 5.81274 45.7781 4.75336 44.6344 4.19086C44.1094 3.92836 43.9219 3.89086 43.1344 3.87211C42.45 3.84399 42.1219 3.88149 41.7656 4.00336ZM44.025 4.84711C44.6906 5.07211 45.5625 5.96274 45.7969 6.65649C46.1625 7.73461 45.9469 8.84086 45.2156 9.65649C44.6344 10.3034 44.0062 10.6127 43.1625 10.669C41.925 10.744 40.9219 10.1909 40.3219 9.09399C40.0125 8.53149 39.9844 8.42836 39.9844 7.68774C39.9844 6.95649 40.0125 6.84399 40.3031 6.30024C40.8656 5.25961 41.7937 4.69711 42.9469 4.68774C43.2844 4.68774 43.7625 4.75336 44.025 4.84711ZM18.8812 7.40649C19.5187 7.70649 20.0812 8.25961 20.3906 8.86899C20.625 9.33774 20.6625 9.53461 20.6625 10.1721C20.6625 11.0721 20.4656 11.5784 19.875 12.2252C18.2625 13.9784 15.3937 13.2284 14.7562 10.9034C14.5031 9.96586 14.7656 8.92524 15.45 8.14711C15.75 7.80024 16.5281 7.33149 17.0062 7.20961C17.4656 7.08774 18.4125 7.19086 18.8812 7.40649Z" fill="#151515"/>
<path d="M42.5625 21.375V29.1562H42.9844H43.4063V21.375V13.5937H42.9844H42.5625V21.375Z" fill="#151515"/>
<path d="M36.1875 22.4062V29.0625H36.6094H37.0313V22.4062V15.75H36.6094H36.1875V22.4062Z" fill="#151515"/>
<path d="M17.25 21.4219V26.7188H17.6719H18.0938V21.4219V16.125H17.6719H17.25V21.4219Z" fill="#151515"/>
<path d="M23.625 22.875V29.0625H24H24.375V22.875V16.6875H24H23.625V22.875Z" fill="#151515"/>
<path d="M10.9688 21.8906V25.7812H11.3906H11.8125V21.8906V18H11.3906H10.9688V21.8906Z" fill="#151515"/>
<path d="M29.9062 26.0625V29.0625H30.3281H30.75V26.0625V23.0625H30.3281H29.9062V26.0625Z" fill="#151515"/>
<path d="M4.59375 26.7656V27.9375H5.01563H5.4375V26.7656V25.5938H5.01563H4.59375V26.7656Z" fill="#151515"/>
<path d="M7.35938 27.4125C6.96563 27.5812 6.58125 28.0594 6.50625 28.4625C6.47813 28.6406 6.45938 29.3531 6.4875 30.0469C6.51562 31.2375 6.50625 31.3125 6.34688 31.3125C5.98125 31.3125 5.4375 31.7156 5.24063 32.1281C5.0625 32.5031 5.04375 32.6625 5.07188 33.9656L5.10938 35.4L4.82812 35.5406C4.66875 35.625 4.4625 35.8594 4.34063 36.0938C4.15313 36.4594 4.125 36.6469 4.125 37.7344C4.125 38.8219 4.15313 39.0094 4.34063 39.375C4.47188 39.6375 4.67813 39.8625 4.88438 39.9844C5.15625 40.1344 5.2125 40.2094 5.14688 40.3594C5.10938 40.4625 5.07188 41.1 5.07188 41.7656C5.0625 42.8625 5.08125 43.0312 5.27813 43.4062C5.4 43.6594 5.60625 43.875 5.8125 43.9875C6.12188 44.1469 6.9 44.1562 24.3 44.1562C36.9 44.1562 42.5344 44.1281 42.7219 44.0531C43.0969 43.9125 43.4906 43.5187 43.6969 43.0781C43.8563 42.7312 43.875 42.3656 43.875 37.3594C43.875 32.3719 43.8563 31.9875 43.6969 31.6406C43.4906 31.1812 43.05 30.7875 42.5813 30.6562C42.3375 30.5812 38.625 30.5625 30.4125 30.5812L18.6 30.6094L18.2625 30.8344C18.0844 30.9562 17.8313 31.2094 17.7094 31.3875C17.4938 31.7062 17.4844 31.7906 17.4563 33.5344L17.4281 35.3438H16.425H15.4219V33.75C15.4219 32.4281 15.4406 32.1562 15.5531 32.1562C15.8531 32.1562 16.5 31.7531 16.6875 31.4625C16.8563 31.1812 16.875 30.9937 16.875 29.7C16.875 28.3406 16.8563 28.2281 16.6594 27.9281C16.2281 27.2719 16.2656 27.2812 11.7188 27.2812C8.54063 27.2906 7.575 27.3187 7.35938 27.4125ZM15.8531 28.3031C16.05 28.4625 16.0781 28.5656 16.1063 29.4656C16.1531 30.6 16.0406 31.05 15.6938 31.2094C15.5344 31.2844 14.3063 31.3125 11.6156 31.3125H7.77188L7.54688 31.0781C7.32188 30.8625 7.3125 30.7969 7.3125 29.7375C7.3125 28.7437 7.33125 28.5937 7.50938 28.3687L7.69688 28.125H11.6719C15.4219 28.125 15.6469 28.1344 15.8531 28.3031ZM42.5813 31.5937C43.0406 31.95 43.0406 31.9687 43.0125 37.5281L42.9844 42.7687L42.675 43.0406L42.375 43.3125H32.6625C23.8406 43.3125 22.95 43.3031 23.0063 43.1625C23.0344 43.0781 23.0625 42.825 23.0625 42.6V42.1875H31.3875C40.7156 42.1875 39.9375 42.2437 40.0688 41.5125C40.1531 41.0344 40.6313 40.5469 41.1562 40.4062C41.9438 40.2 41.9062 40.3312 41.9062 37.4062C41.9062 34.8187 41.9062 34.8094 41.6906 34.6125C41.5688 34.5 41.3438 34.3875 41.1844 34.35C40.7344 34.2562 40.2375 33.7969 40.1156 33.3469C40.05 33.1312 39.9188 32.8594 39.8156 32.7375L39.6281 32.5312H30.6094C20.4563 32.5312 21.4313 32.4562 21.1969 33.2719C21.0469 33.7969 20.6719 34.1719 20.1469 34.3219C19.5844 34.4812 19.4063 34.65 19.4063 35.0344V35.3438H18.8438H18.2813V33.6937V32.0437L18.6 31.725L18.9188 31.4062H30.6375C42.1406 31.4062 42.3563 31.4062 42.5813 31.5937ZM14.4188 32.3062C14.6156 32.4375 14.625 32.5125 14.625 33.7031C14.625 35.5125 15.0656 35.3531 10.1906 35.325L6.2625 35.2969L6.08438 35.0719C5.93438 34.8844 5.90625 34.6969 5.90625 33.75C5.90625 32.775 5.925 32.625 6.10313 32.4L6.29063 32.1562H10.2563C13.6781 32.1562 14.2406 32.175 14.4188 32.3062ZM31.5188 34.9688C32.5031 35.3344 33.1875 36.3281 33.1781 37.3594C33.1688 38.4094 32.6906 39.1875 31.7813 39.6469C30.4969 40.2844 29.0719 39.825 28.3875 38.5687C27.6188 37.1344 28.3031 35.4844 29.8969 34.9125C30.3844 34.7344 30.9563 34.7531 31.5188 34.9688ZM13.5188 36.3469C13.6688 36.4781 13.6875 36.6562 13.6875 37.7344C13.6875 38.8687 13.6688 38.9812 13.4906 39.15C13.3031 39.3187 13.0781 39.3281 9.61875 39.3562C7.60313 39.375 5.8125 39.3562 5.64375 39.3281C5.04375 39.2156 4.96875 39.0469 4.96875 37.7531C4.96875 36.0187 4.50938 36.1875 9.34688 36.1875C12.9375 36.1875 13.3594 36.2062 13.5188 36.3469ZM20.7094 36.4312C20.8781 36.6469 20.9062 36.8156 20.9062 37.6969C20.9062 38.8406 20.8125 39.1312 20.4094 39.2812C20.2406 39.3375 19.0313 39.375 17.3063 39.375H14.4844V37.7812V36.1875H17.5031H20.5219L20.7094 36.4312ZM14.4281 40.35C14.6063 40.5187 14.625 40.6312 14.625 41.7469C14.625 42.75 14.5969 43.0031 14.4656 43.1437C14.325 43.3031 14.0719 43.3125 10.3031 43.3125C5.45625 43.3125 5.90625 43.4719 5.90625 41.8031C5.90625 41.1937 5.93438 40.6312 5.9625 40.5469C6.1125 40.1531 6.42188 40.125 10.4156 40.1531C14.0156 40.1719 14.2406 40.1812 14.4281 40.35ZM21.7406 40.2281C21.9 40.2844 22.0781 40.4062 22.125 40.5C22.1813 40.5937 22.2188 41.1844 22.2188 41.8031C22.2188 43.4531 22.5563 43.3125 18.6375 43.3125H15.4219V41.7188V40.125H18.4313C20.3906 40.125 21.5438 40.1625 21.7406 40.2281Z" fill="#151515"/>
</svg>
