<svg width="24" height="24" viewBox="0 0 24 24" fill="none" xmlns="http://www.w3.org/2000/svg">
<path d="M15.9952 19.9936V3.99929C15.9952 3.46905 15.7846 2.96052 15.4096 2.58558C15.0347 2.21064 14.5262 2 13.9959 2H9.99734C9.46709 2 8.95857 2.21064 8.58363 2.58558C8.20869 2.96052 7.99805 3.46905 7.99805 3.99929V19.9936" stroke="#8BCF9A" stroke-width="1.99929" stroke-linecap="round" stroke-linejoin="round"/>
<path d="M19.9936 5.99805H3.99929C2.89511 5.99805 2 6.89316 2 7.99734V17.9938C2 19.098 2.89511 19.9931 3.99929 19.9931H19.9936C21.0978 19.9931 21.9929 19.098 21.9929 17.9938V7.99734C21.9929 6.89316 21.0978 5.99805 19.9936 5.99805Z" stroke="#8BCF9A" stroke-width="1.99929" stroke-linecap="round" stroke-linejoin="round"/>
</svg>
