<svg width="24" height="24" viewBox="0 0 24 24" fill="none" xmlns="http://www.w3.org/2000/svg">
<path d="M11.5215 2.29479C11.5653 2.20628 11.6329 2.13178 11.7168 2.07969C11.8007 2.0276 11.8975 2 11.9963 2C12.095 2 12.1918 2.0276 12.2757 2.07969C12.3596 2.13178 12.4273 2.20628 12.4711 2.29479L14.7803 6.97213C14.9324 7.27999 15.157 7.54633 15.4347 7.74831C15.7124 7.95028 16.035 8.08185 16.3747 8.13172L21.5389 8.88745C21.6368 8.90162 21.7287 8.9429 21.8043 9.0066C21.8799 9.07031 21.9362 9.1539 21.9668 9.24793C21.9973 9.34195 22.001 9.44266 21.9773 9.53865C21.9537 9.63465 21.9036 9.7221 21.8328 9.79113L18.0981 13.4278C17.8518 13.6679 17.6676 13.9641 17.5612 14.2912C17.4548 14.6182 17.4294 14.9662 17.4873 15.3052L18.369 20.4433C18.3863 20.5411 18.3757 20.6418 18.3385 20.7339C18.3013 20.826 18.239 20.9058 18.1586 20.9642C18.0783 21.0225 17.9831 21.0571 17.8841 21.064C17.785 21.0709 17.686 21.0498 17.5983 21.0031L12.9819 18.576C12.6778 18.4163 12.3394 18.3328 11.9958 18.3328C11.6522 18.3328 11.3138 18.4163 11.0096 18.576L6.39428 21.0031C6.30665 21.0495 6.20775 21.0704 6.10884 21.0634C6.00993 21.0563 5.91497 21.0217 5.83478 20.9634C5.75458 20.9051 5.69237 20.8254 5.6552 20.7335C5.61804 20.6415 5.60742 20.541 5.62456 20.4433L6.50524 15.3062C6.56342 14.967 6.53822 14.6188 6.43181 14.2916C6.3254 13.9643 6.14098 13.6679 5.89446 13.4278L2.15979 9.79213C2.08841 9.72318 2.03783 9.63558 2.0138 9.53929C1.98978 9.443 1.99329 9.3419 2.02392 9.24751C2.05455 9.15312 2.11107 9.06922 2.18706 9.00539C2.26304 8.94155 2.35542 8.90034 2.45368 8.88645L7.61685 8.13172C7.95699 8.08223 8.28 7.95084 8.5581 7.74884C8.8362 7.54684 9.06104 7.28029 9.21328 6.97213L11.5215 2.29479Z" stroke="#8BCF9A" stroke-width="1.99929" stroke-linecap="round" stroke-linejoin="round"/>
</svg>
