<svg width="24" height="24" viewBox="0 0 24 24" fill="none" xmlns="http://www.w3.org/2000/svg">
<path d="M2.99134 16.3366C3.13833 16.7074 3.17105 17.1137 3.08531 17.5032L2.02068 20.792C1.98638 20.9588 1.99525 21.1316 2.04645 21.294C2.09765 21.4564 2.18949 21.603 2.31325 21.72C2.43701 21.8369 2.58859 21.9203 2.75362 21.9623C2.91865 22.0042 3.09166 22.0033 3.25624 21.9596L6.66803 20.962C7.03562 20.889 7.4163 20.9209 7.76664 21.0539C9.90127 22.0508 12.3194 22.2617 14.5944 21.6494C16.8693 21.0372 18.855 19.6411 20.2009 17.7075C21.5469 15.7739 22.1666 13.427 21.9509 11.081C21.7352 8.73499 20.6977 6.54055 19.0217 4.88486C17.3457 3.22918 15.1387 2.21865 12.7902 2.03158C10.4418 1.8445 8.10266 2.4929 6.18565 3.86237C4.26863 5.23184 2.8969 7.23438 2.31247 9.51666C1.72804 11.7989 1.96847 14.2143 2.99134 16.3366Z" stroke="#8BCF9A" stroke-width="1.99929" stroke-linecap="round" stroke-linejoin="round"/>
</svg>
