<svg width="85" height="83" viewBox="0 0 85 83" fill="none" xmlns="http://www.w3.org/2000/svg">
<path d="M40.3362 7.24668L21.1809 32.2185C20.9469 32.5236 20.9469 33.0183 21.1809 33.3234L58.3073 81.7233C59.1017 82.7589 60.3897 82.7589 61.1841 81.7233L79.4943 57.8532M40.3362 7.24668L44.9156 1.27671C45.71 0.241095 46.998 0.241095 47.7924 1.27671L83.9042 48.3539C84.6986 49.3895 84.6986 51.0686 83.9042 52.1042L79.4943 57.8532M40.3362 7.24668L50.69 42.7051C50.8971 43.4144 51.3274 43.974 51.8719 44.2423L79.4943 57.8532M0.5 22.3844H20.3333M1.00855 44.7043H20.8419M17.282 57.0797H30.6738M18.1296 70.5601L41.0142 70.5601" stroke="#555555" stroke-linecap="round"/>
</svg>
