<svg width="84" height="82" viewBox="0 0 84 82" fill="none" xmlns="http://www.w3.org/2000/svg">
<path d="M59.9982 5.92578C56.5693 6.48633 53.3045 8.2 50.7123 10.8105L49.3506 12.1719L32.2717 12.2039C13.2568 12.268 14.6022 12.1879 12.0264 13.373C10.4022 14.1098 9.4834 14.7504 8.1545 15.9996C6.842 17.2328 5.93965 18.466 5.16856 20.0676C3.9545 22.55 4.03653 21.525 3.9709 37.6848C3.93809 51.7945 3.93809 52.259 4.26622 53.5883C5.25059 57.6723 8.13809 61.0996 12.0592 62.8773C14.0279 63.7582 15.6193 64.0625 18.4248 64.0625H20.8365V69.3797C20.8365 72.5668 20.9022 74.9531 21.0006 75.3055C21.1975 75.9941 21.5584 76.2344 22.3787 76.2344C22.8873 76.2344 23.8061 75.5457 30.6803 70.1484L38.424 64.0625H50.5811C62.1803 64.0625 62.8201 64.0465 64.1162 63.7422C69.1693 62.557 73.1561 58.7293 74.4193 53.8445C74.8131 52.3391 74.8131 52.291 74.8131 43.4504V34.5617L75.8467 33.4727C77.717 31.4867 79.21 28.5879 79.8006 25.7531C80.1451 24.1195 80.1451 20.7242 79.8006 19.0906C79.0951 15.7594 77.6514 13.1809 75.0592 10.6504C72.467 8.11993 69.8256 6.71055 66.4131 6.02187C65.0514 5.74961 61.4256 5.70156 59.9982 5.92578ZM66.249 8.82461C68.1686 9.24102 70.5311 10.3781 72.0568 11.6113C77.1264 15.6953 78.7178 22.566 75.9615 28.3156C72.4998 35.5066 63.6732 38.4695 56.4709 34.85C47.3326 30.2375 45.9873 18.0016 53.9279 11.6113C56.0443 9.91367 59.0139 8.72852 61.6881 8.5043C63.3615 8.36016 64.4443 8.44024 66.249 8.82461ZM47.3162 15.6313C46.3811 17.7133 46.0693 19.1387 45.9873 21.7973C45.8889 24.6801 46.1021 26.0734 46.9881 28.3797C47.7756 30.4297 48.9404 32.1914 50.5975 33.9051C52.8451 36.2113 55.2076 37.6207 58.3576 38.5336C60.31 39.0941 64.0014 39.2543 66.1834 38.8539C67.8732 38.5336 69.8912 37.8449 71.1381 37.1562C71.6303 36.9 72.0568 36.6758 72.1225 36.6758C72.1717 36.6758 72.1881 40.1191 72.1553 44.3152C72.0897 51.3461 72.0568 52.0668 71.7451 53.0918C70.6459 56.9035 67.9389 59.6742 64.0998 60.9234C62.5904 61.4199 60.4576 61.5 48.8092 61.5H37.1443L30.4342 66.7852L23.7076 72.0703L23.6584 67.1535C23.6256 62.4609 23.6092 62.2207 23.2811 61.8844C22.9693 61.5641 22.7561 61.532 19.6389 61.452C15.9147 61.3398 14.8975 61.1637 13.0436 60.2828C10.7631 59.1938 8.92559 57.4 7.80997 55.1738C6.62872 52.8195 6.67793 53.3801 6.61231 39.3344C6.54668 26.0895 6.61231 24.1996 7.21934 22.3898C8.58106 18.418 12.3873 15.391 16.6201 14.9105C17.2764 14.8305 24.5279 14.7664 32.7639 14.7504L47.7264 14.7344L47.3162 15.6313Z" fill="#555555"/>
<path d="M58.0781 11.1949C56.4211 11.7715 55.125 13.5652 55.125 15.2949C55.125 17.6012 57.2742 19.6992 59.6367 19.6992C60.3586 19.6992 61.5727 19.3309 62.1305 18.9305L62.6062 18.6102L64.5258 19.6672L66.4289 20.7402V21.9414L66.4453 23.1426L64.3617 24.6L62.2945 26.0734L61.4578 25.6891C60.5227 25.2566 59.0461 25.1926 58.1273 25.5129C55.207 26.5699 54.2063 30.2055 56.2242 32.4957C57.8812 34.3855 61.343 34.4656 62.918 32.6398C63.8039 31.6148 64.05 30.9262 64.05 29.5488L64.0336 28.2516L65.8219 26.9863C66.8062 26.2816 67.725 25.657 67.8398 25.577C67.9711 25.5129 68.4141 25.641 68.9062 25.8813C69.6773 26.2656 69.907 26.2977 71.1211 26.2336C72.1219 26.1855 72.5977 26.0734 73.0406 25.8172C74.5336 24.9203 75.3047 23.591 75.3047 21.9414C75.2883 20.2438 74.4352 18.8344 72.9258 18.0496C71.9578 17.5371 69.9234 17.5531 68.7914 18.0816L67.9547 18.45L66.0352 17.3449L64.1156 16.2398L64.0664 15.1828C64.0172 13.8855 63.5742 12.9086 62.6391 12.0918C61.3758 10.9707 59.6695 10.6344 58.0781 11.1949ZM60.6375 14.0137C61.6055 14.6223 61.425 16.2398 60.3258 16.7523C59.6367 17.0727 59.0297 16.9605 58.4883 16.416C57.6844 15.6473 57.832 14.4941 58.8 13.9016C59.3578 13.5652 60.0141 13.6133 60.6375 14.0137ZM71.5805 20.516C73.1555 21.3008 72.6305 23.543 70.875 23.543C70.3336 23.543 70.0875 23.4469 69.7102 23.0785C68.4305 21.8133 69.9727 19.7152 71.5805 20.516ZM60.5062 28.2836C61.0477 28.652 61.3922 29.4047 61.2773 29.9492C61.1297 30.6219 60.3258 31.2305 59.5875 31.2305C58.9148 31.2145 58.6031 31.0383 58.1766 30.3977C57.307 29.0844 59.1937 27.3707 60.5062 28.2836Z" fill="#555555"/>
<path d="M13.9294 27.0664C13.7818 27.1465 13.5685 27.4348 13.4537 27.707C13.2076 28.2676 13.4537 29.0523 13.9622 29.3086C14.1427 29.4047 17.6044 29.4688 22.7068 29.4688C30.9591 29.4688 31.1888 29.4527 31.5005 29.1484C31.7138 28.9402 31.8287 28.6199 31.8287 28.1875C31.8287 27.7551 31.7138 27.4348 31.5005 27.2266C31.1888 26.9223 30.9591 26.9062 22.6904 26.9062C17.6537 26.9062 14.0771 26.9703 13.9294 27.0664Z" fill="#555555"/>
<path d="M34.9294 27.0664C34.7818 27.1465 34.5685 27.4348 34.4537 27.707C34.2076 28.2676 34.4537 29.0523 34.9622 29.3086C35.1263 29.4047 36.7669 29.4688 38.6208 29.4688C41.7872 29.4688 42.0169 29.4527 42.3287 29.1484C42.5419 28.9402 42.6568 28.6199 42.6568 28.1875C42.6568 27.7551 42.5419 27.4348 42.3287 27.2266C42.0169 26.9223 41.7872 26.9062 38.6044 26.9062C36.7177 26.9062 35.0771 26.9863 34.9294 27.0664Z" fill="#555555"/>
<path d="M13.9294 37.3164C13.7818 37.3965 13.5685 37.6848 13.4537 37.957C13.2076 38.5176 13.4537 39.3023 13.9622 39.5586C14.1427 39.6547 20.6232 39.7188 31.074 39.7188C47.6935 39.7188 47.9068 39.7188 48.2349 39.3984C48.4482 39.1902 48.563 38.8699 48.563 38.4375C48.563 38.0051 48.4482 37.6848 48.2349 37.4766C47.9068 37.1562 47.6935 37.1562 31.0576 37.1562C20.7544 37.1562 14.0935 37.2203 13.9294 37.3164Z" fill="#555555"/>
<path d="M13.9294 47.5664C13.7818 47.6465 13.5685 47.9348 13.4537 48.207C13.2076 48.7676 13.4537 49.5523 13.9622 49.8086C14.1263 49.9047 15.4716 49.9688 16.9646 49.9688C19.4747 49.9688 19.7208 49.9367 20.0162 49.6484C20.2294 49.4402 20.3443 49.1199 20.3443 48.6875C20.3443 48.2551 20.2294 47.9348 20.0162 47.7266C19.7208 47.4383 19.4747 47.4062 16.9482 47.4062C15.4224 47.4062 14.0771 47.4863 13.9294 47.5664Z" fill="#333333"/>
<path d="M23.2969 47.7266C23.0836 47.9348 22.9688 48.2551 22.9688 48.6875C22.9688 49.1199 23.0836 49.4402 23.2969 49.6484C23.625 49.9688 23.8383 49.9688 43.9687 49.9688C64.0992 49.9688 64.3125 49.9688 64.6406 49.6484C65.0836 49.216 65.0836 48.159 64.6406 47.7266C64.3125 47.4062 64.0992 47.4062 43.9687 47.4062C23.8383 47.4062 23.625 47.4062 23.2969 47.7266Z" fill="#333333"/>
</svg>
