<svg width="32" height="32" viewBox="0 0 32 32" fill="none" xmlns="http://www.w3.org/2000/svg">
<path d="M22.6523 12.9468H9.3457C8.79904 12.9468 8.3457 12.4934 8.3457 11.9468C8.3457 11.4001 8.79904 10.9468 9.3457 10.9468H22.6523C23.199 10.9468 23.6523 11.4001 23.6523 11.9468C23.6523 12.4934 23.199 12.9468 22.6523 12.9468Z" fill="#292D32"/>
<path d="M16 12.9465C15.4533 12.9465 15 12.4932 15 11.9465V9.70654C15 9.15988 15.4533 8.70654 16 8.70654C16.5467 8.70654 17 9.15988 17 9.70654V11.9465C17 12.4932 16.5467 12.9465 16 12.9465Z" fill="#292D32"/>
<path d="M9.33398 23.2932C8.78732 23.2932 8.33398 22.8399 8.33398 22.2932C8.33398 21.7465 8.78732 21.2932 9.33398 21.2932C14.294 21.2932 18.334 17.0933 18.334 11.9199C18.334 11.3733 18.7873 10.9199 19.334 10.9199C19.8807 10.9199 20.334 11.3733 20.334 11.9199C20.334 18.1999 15.4007 23.2932 9.33398 23.2932Z" fill="#292D32"/>
<path d="M22.667 23.2932C20.0403 23.2932 17.6003 21.9865 15.8136 19.5999C15.4803 19.1599 15.5737 18.5332 16.0137 18.1999C16.4537 17.8666 17.0803 17.9598 17.4136 18.3998C18.827 20.2665 20.6937 21.2932 22.6803 21.2932C23.227 21.2932 23.6803 21.7465 23.6803 22.2932C23.6803 22.8398 23.2137 23.2932 22.667 23.2932Z" fill="#292D32"/>
<path d="M15.9993 30.3332C8.09268 30.3332 1.66602 23.9065 1.66602 15.9998C1.66602 8.09317 8.09268 1.6665 15.9993 1.6665C23.906 1.6665 30.3327 8.09317 30.3327 15.9998C30.3327 23.9065 23.906 30.3332 15.9993 30.3332ZM15.9993 3.6665C9.19935 3.6665 3.66602 9.19984 3.66602 15.9998C3.66602 22.7998 9.19935 28.3332 15.9993 28.3332C22.7993 28.3332 28.3327 22.7998 28.3327 15.9998C28.3327 9.19984 22.7993 3.6665 15.9993 3.6665Z" fill="#292D32"/>
</svg>
