<svg width="24" height="24" viewBox="0 0 24 24" fill="none" xmlns="http://www.w3.org/2000/svg">
<path d="M9.32488 2.02014C7.51147 2.25444 5.91828 3.53367 5.29038 5.25337C4.20327 8.23356 6.0776 11.4527 9.19368 11.9494C9.70912 12.0338 10.7915 11.9869 11.2554 11.8651C13.022 11.3918 14.3668 10.047 14.8682 8.25699C14.9526 7.94304 14.9666 7.77435 14.9666 6.98244C14.9666 6.12494 14.9573 6.04059 14.8401 5.64698C14.2403 3.6555 12.6237 2.26849 10.6135 2.02014C10.1355 1.96391 9.77004 1.96391 9.32488 2.02014ZM10.8853 4.16626C11.6772 4.44741 12.3004 4.98159 12.6378 5.67041C12.8861 6.17648 13.0033 6.72941 12.9611 7.20268C12.8158 8.96455 11.1524 10.2532 9.46077 9.91578C8.05034 9.63463 7.02882 8.39757 7.02882 6.98713C7.02882 6.17648 7.30997 5.52515 7.91913 4.92068C8.35492 4.48489 8.77196 4.23655 9.30145 4.10066C9.69506 4.00225 10.5198 4.03505 10.8853 4.16626Z" fill="#8BCF9A"/>
<path d="M18.6262 2.04287C18.2326 2.18813 17.9937 2.54894 17.9937 2.99878C17.9937 3.34085 18.1014 3.58451 18.3498 3.786C18.6262 4.01561 18.7902 4.03904 20.1023 4.02029C21.4003 4.00623 21.4331 4.00155 21.7142 3.7204C21.9298 3.50485 21.9954 3.33147 22 2.99878C22 2.60048 21.8407 2.30996 21.5174 2.12253L21.2972 1.99133L20.0554 1.98195C19.0527 1.97258 18.7762 1.98664 18.6262 2.04287Z" fill="#8BCF9A"/>
<path d="M16.5644 6.06352C16.0771 6.27907 15.8428 6.9304 16.0677 7.4271C16.1708 7.66139 16.4379 7.90037 16.6675 7.96597C16.7894 8.00346 17.5578 8.01283 19.1042 8.00346L21.3581 7.9894L21.5642 7.84882C22.1968 7.39898 22.1406 6.43839 21.4565 6.09163C21.2878 6.0026 21.1753 5.99792 18.9917 5.99792C17.1923 6.0026 16.6769 6.01666 16.5644 6.06352Z" fill="#8BCF9A"/>
<path d="M19.5634 10.0697C18.8606 10.3977 18.7762 11.3958 19.4088 11.8362C19.6009 11.9721 19.6056 11.9721 20.435 11.9862C21.1941 12.0002 21.2831 11.9955 21.4518 11.9065C22.1406 11.5551 22.2016 10.5945 21.5643 10.1446L21.3581 10.0041L20.5568 9.99001C19.8493 9.98064 19.7274 9.99001 19.5634 10.0697Z" fill="#8BCF9A"/>
<path d="M9.16084 13.0128C7.93784 13.1206 6.41963 13.6876 5.38874 14.4233C4.59215 14.9903 3.7159 15.904 3.2192 16.6959C2.46947 17.8767 2.01494 19.3668 2.00088 20.7117C1.99151 21.274 1.9962 21.3068 2.12272 21.5176C2.31015 21.8409 2.60067 22.0003 2.99897 22.0003C3.33166 21.9956 3.50504 21.93 3.72058 21.7144C3.9455 21.4848 3.99236 21.3349 4.03454 20.7351C4.07671 20.0697 4.17042 19.5871 4.36254 19.0341C5.07011 17.0099 6.86478 15.4823 8.97341 15.1121C9.50759 15.0184 10.4869 15.0184 11.0164 15.1074C12.2019 15.3183 13.3219 15.8993 14.1794 16.7521C14.6761 17.2488 15.0134 17.708 15.3227 18.3219C15.721 19.1138 15.8944 19.7886 15.974 20.8429C16.0068 21.3208 16.0256 21.3911 16.1474 21.5692C16.5973 22.2064 17.5532 22.1408 17.9093 21.4473C17.9983 21.2646 18.003 21.2037 17.9796 20.5242C17.9234 18.9638 17.3845 17.4784 16.4145 16.1805C15.1259 14.4608 13.1953 13.3315 11.0586 13.0456C10.6134 12.9894 9.63879 12.9707 9.16084 13.0128Z" fill="#8BCF9A"/>
</svg>
