<svg width="84" height="82" viewBox="0 0 84 82" fill="none" xmlns="http://www.w3.org/2000/svg">
<path d="M32.6479 6.90283C26.2986 7.70361 20.7205 12.0759 18.5221 17.9536C14.7158 28.1395 21.2783 39.1423 32.1885 40.8399C33.9932 41.1282 37.783 40.9681 39.4072 40.5517C45.5924 38.9341 50.301 34.3376 52.0565 28.2196C52.3518 27.1466 52.401 26.57 52.401 23.8634C52.401 20.9325 52.3682 20.6442 51.958 19.2989C49.858 12.4923 44.1979 7.75166 37.1596 6.90283C35.4861 6.71064 34.2065 6.71064 32.6479 6.90283ZM38.1112 14.238C40.8838 15.1989 43.0658 17.0247 44.2471 19.379C45.1166 21.1087 45.5268 22.9985 45.3791 24.6161C44.8705 30.638 39.0463 35.0423 33.1237 33.8892C28.1854 32.9282 24.6088 28.7001 24.6088 23.8794C24.6088 21.1087 25.5932 18.8825 27.726 16.8165C29.2518 15.327 30.7119 14.4782 32.5658 14.0138C33.944 13.6774 36.8315 13.7895 38.1112 14.238Z" fill="#555555"/>
<path d="M65.2148 6.98277C63.8367 7.47926 63 8.71246 63 10.25C63 11.4191 63.3773 12.2519 64.2469 12.9406C65.2148 13.7253 65.7891 13.8054 70.3828 13.7414C74.9273 13.6933 75.0422 13.6773 76.0266 12.7164C76.7812 11.9796 77.0109 11.3871 77.0273 10.25C77.0273 8.88863 76.4695 7.89566 75.3375 7.25504L74.5664 6.8066L70.2187 6.77457C66.7078 6.74254 65.7398 6.79058 65.2148 6.98277Z" fill="#555555"/>
<path d="M57.995 20.7242C56.2888 21.4609 55.4685 23.6871 56.256 25.3847C56.6169 26.1855 57.552 27.0023 58.356 27.2265C58.7825 27.3547 61.4731 27.3867 66.8872 27.3547L74.7786 27.3066L75.5005 26.8261C77.7153 25.2886 77.5185 22.0054 75.1231 20.8203C74.5325 20.516 74.1388 20.5 66.4935 20.5C60.1935 20.516 58.3888 20.564 57.995 20.7242Z" fill="#555555"/>
<path d="M68.4952 34.4176C66.0342 35.5387 65.7389 38.95 67.9538 40.4555C68.6264 40.9199 68.6428 40.9199 71.5467 40.968C74.2045 41.016 74.5162 41 75.1069 40.6957C77.5186 39.4945 77.7319 36.2113 75.5006 34.6738L74.7787 34.1934L71.9733 34.1453C69.4959 34.1133 69.0694 34.1453 68.4952 34.4176Z" fill="#555555"/>
<path d="M32.0737 44.4754C27.7916 44.8438 22.476 46.7816 18.8666 49.2961C16.0776 51.234 13.0096 54.357 11.2706 57.0637C8.64555 61.0996 7.05415 66.1926 7.00493 70.7891C6.97211 72.7109 6.98852 72.823 7.43149 73.5437C8.08774 74.6488 9.10493 75.1934 10.4995 75.1934C11.6643 75.1773 12.2713 74.9531 13.026 74.2164C13.8135 73.4316 13.9776 72.9191 14.1252 70.8691C14.2729 68.5949 14.601 66.9453 15.2737 65.0555C17.751 58.1367 24.0346 52.9156 31.4174 51.6504C33.2877 51.3301 36.7166 51.3301 38.5706 51.6344C42.7213 52.3551 46.6424 54.341 49.6448 57.2559C51.3838 58.9535 52.5651 60.523 53.6479 62.6211C55.0424 65.3277 55.6495 67.634 55.9284 71.2375C56.0432 72.8711 56.1088 73.1113 56.5354 73.7199C58.1104 75.898 61.4573 75.6738 62.7042 73.3035C63.0159 72.6789 63.0323 72.4707 62.9502 70.1484C62.7534 64.8152 60.8666 59.7383 57.4706 55.302C52.9588 49.4242 46.1995 45.5645 38.7182 44.5875C37.1596 44.3953 33.7471 44.3313 32.0737 44.4754Z" fill="#555555"/>
</svg>
