<svg width="24" height="24" viewBox="0 0 24 24" fill="none" xmlns="http://www.w3.org/2000/svg">
<path d="M17.62 9.61914H12.37C11.96 9.61914 11.62 9.27914 11.62 8.86914C11.62 8.45914 11.96 8.11914 12.37 8.11914H17.62C18.03 8.11914 18.37 8.45914 18.37 8.86914C18.37 9.27914 18.04 9.61914 17.62 9.61914Z" fill="#6F6F6F"/>
<path d="M7.12 10.3803C6.93 10.3803 6.74 10.3103 6.59 10.1603L5.84 9.41031C5.55 9.12031 5.55 8.64031 5.84 8.35031C6.13 8.06031 6.61 8.06031 6.9 8.35031L7.12 8.57031L8.84 6.85031C9.13 6.56031 9.61 6.56031 9.9 6.85031C10.19 7.14031 10.19 7.62031 9.9 7.91031L7.65 10.1603C7.51 10.3003 7.32 10.3803 7.12 10.3803Z" fill="#6F6F6F"/>
<path d="M17.62 16.6191H12.37C11.96 16.6191 11.62 16.2791 11.62 15.8691C11.62 15.4591 11.96 15.1191 12.37 15.1191H17.62C18.03 15.1191 18.37 15.4591 18.37 15.8691C18.37 16.2791 18.04 16.6191 17.62 16.6191Z" fill="#6F6F6F"/>
<path d="M7.12 17.3803C6.93 17.3803 6.74 17.3103 6.59 17.1603L5.84 16.4103C5.55 16.1203 5.55 15.6403 5.84 15.3503C6.13 15.0603 6.61 15.0603 6.9 15.3503L7.12 15.5703L8.84 13.8503C9.13 13.5603 9.61 13.5603 9.9 13.8503C10.19 14.1403 10.19 14.6203 9.9 14.9103L7.65 17.1603C7.51 17.3003 7.32 17.3803 7.12 17.3803Z" fill="#6F6F6F"/>
<path d="M15 22.75H9C3.57 22.75 1.25 20.43 1.25 15V9C1.25 3.57 3.57 1.25 9 1.25H15C20.43 1.25 22.75 3.57 22.75 9V15C22.75 20.43 20.43 22.75 15 22.75ZM9 2.75C4.39 2.75 2.75 4.39 2.75 9V15C2.75 19.61 4.39 21.25 9 21.25H15C19.61 21.25 21.25 19.61 21.25 15V9C21.25 4.39 19.61 2.75 15 2.75H9Z" fill="#6F6F6F"/>
</svg>
