<svg width="16" height="16" viewBox="0 0 16 16" fill="none" xmlns="http://www.w3.org/2000/svg">
<path opacity="0.4" d="M8.00065 14.6666C11.6825 14.6666 14.6673 11.6818 14.6673 7.99992C14.6673 4.31802 11.6825 1.33325 8.00065 1.33325C4.31875 1.33325 1.33398 4.31802 1.33398 7.99992C1.33398 11.6818 4.31875 14.6666 8.00065 14.6666Z" fill="#8BCF9A"/>
<path d="M7.05297 10.3867C6.91964 10.3867 6.79297 10.3334 6.69964 10.2401L4.81297 8.3534C4.61964 8.16007 4.61964 7.84007 4.81297 7.64673C5.0063 7.4534 5.3263 7.4534 5.51964 7.64673L7.05297 9.18007L10.4796 5.7534C10.673 5.56007 10.993 5.56007 11.1863 5.7534C11.3796 5.94673 11.3796 6.26673 11.1863 6.46006L7.4063 10.2401C7.31297 10.3334 7.1863 10.3867 7.05297 10.3867Z" fill="#8BCF9A"/>
</svg>
